<svg xmlns="http://www.w3.org/2000/svg" xmlns:xlink="http://www.w3.org/1999/xlink" width="2000" zoomAndPan="magnify" viewBox="0 0 1500 1499.999933" height="2000" preserveAspectRatio="xMidYMid meet" version="1.0"><defs><g/><clipPath id="41f8865d24"><rect x="0" width="850" y="0" height="1341"/></clipPath><clipPath id="b93aab8aa2"><path d="M 568.980469 133.675781 L 726.84375 133.675781 L 726.84375 291.535156 L 568.980469 291.535156 Z M 568.980469 133.675781 " clip-rule="nonzero"/></clipPath><clipPath id="8b39b20f44"><path d="M 647.910156 133.675781 C 604.320312 133.675781 568.980469 169.011719 568.980469 212.605469 C 568.980469 256.199219 604.320312 291.535156 647.910156 291.535156 C 691.503906 291.535156 726.84375 256.199219 726.84375 212.605469 C 726.84375 169.011719 691.503906 133.675781 647.910156 133.675781 Z M 647.910156 133.675781 " clip-rule="nonzero"/></clipPath><clipPath id="a27ec7067e"><path d="M 0.980469 0.675781 L 158.84375 0.675781 L 158.84375 158.535156 L 0.980469 158.535156 Z M 0.980469 0.675781 " clip-rule="nonzero"/></clipPath><clipPath id="4ab97b4e00"><path d="M 79.910156 0.675781 C 36.320312 0.675781 0.980469 36.011719 0.980469 79.605469 C 0.980469 123.199219 36.320312 158.535156 79.910156 158.535156 C 123.503906 158.535156 158.84375 123.199219 158.84375 79.605469 C 158.84375 36.011719 123.503906 0.675781 79.910156 0.675781 Z M 79.910156 0.675781 " clip-rule="nonzero"/></clipPath><clipPath id="ef6e1ddc7a"><rect x="0" width="159" y="0" height="159"/></clipPath><clipPath id="0c7c0b98af"><rect x="0" width="710" y="0" height="1215"/></clipPath></defs><g transform="matrix(1, 0, 0, 1, 496, 36)"><g clip-path="url(#41f8865d24)"><g fill="#e7e3dd" fill-opacity="1"><g transform="translate(6.4943, 1059.577296)"><g><path d="M 234.328125 -271.15625 L 234.328125 0 L 66.953125 0 L 66.953125 -758.78125 L 351.5 -758.78125 C 392.414062 -758.78125 430.539062 -748.550781 465.875 -728.09375 C 501.207031 -707.632812 529.660156 -679.179688 551.234375 -642.734375 C 572.804688 -606.285156 583.59375 -563.882812 583.59375 -515.53125 C 583.59375 -473.125 575.78125 -435.554688 560.15625 -402.828125 C 544.539062 -370.097656 523.710938 -343.316406 497.671875 -322.484375 C 471.640625 -301.648438 442.628906 -287.144531 410.640625 -278.96875 L 628.234375 0 L 416.21875 0 L 235.453125 -271.15625 Z M 323.59375 -627.109375 L 234.328125 -627.109375 L 234.328125 -402.828125 L 323.59375 -402.828125 C 348.144531 -402.828125 371.019531 -412.492188 392.21875 -431.828125 C 413.425781 -451.171875 424.03125 -479.070312 424.03125 -515.53125 C 424.03125 -550.488281 413.425781 -577.820312 392.21875 -597.53125 C 371.019531 -617.25 348.144531 -627.109375 323.59375 -627.109375 Z M 323.59375 -627.109375 "/></g></g></g></g></g><g clip-path="url(#b93aab8aa2)"><g clip-path="url(#8b39b20f44)"><g transform="matrix(1, 0, 0, 1, 568, 133)"><g clip-path="url(#ef6e1ddc7a)"><g clip-path="url(#a27ec7067e)"><g clip-path="url(#4ab97b4e00)"><path fill="#e7e3dd" d="M 0.980469 0.675781 L 158.84375 0.675781 L 158.84375 158.535156 L 0.980469 158.535156 Z M 0.980469 0.675781 " fill-opacity="1" fill-rule="nonzero"/></g></g></g></g></g></g><g transform="matrix(1, 0, 0, 1, 312, 285)"><g clip-path="url(#0c7c0b98af)"><g fill="#e7e3dd" fill-opacity="1"><g transform="translate(3.939424, 1060.117528)"><g><path d="M 129.4375 -149.53125 C 169.613281 -149.53125 198.253906 -156.410156 215.359375 -170.171875 C 232.472656 -183.929688 243.070312 -202.15625 247.15625 -224.84375 C 251.25 -247.53125 253.296875 -271.894531 253.296875 -297.9375 L 253.296875 -758.78125 L 420.671875 -758.78125 L 420.671875 -284.546875 C 420.671875 -212.390625 408.953125 -154.734375 385.515625 -111.578125 C 362.085938 -68.429688 328.800781 -37.1875 285.65625 -17.84375 C 242.507812 1.488281 190.4375 11.15625 129.4375 11.15625 C 110.09375 11.15625 91.492188 10.039062 73.640625 7.8125 C 55.785156 5.582031 38.675781 2.609375 22.3125 -1.109375 L 22.3125 -205.3125 L 25.671875 -205.3125 C 45.003906 -168.125 79.59375 -149.53125 129.4375 -149.53125 Z M 129.4375 -149.53125 "/></g></g></g></g></g></svg>